<svg xmlns="http://www.w3.org/2000/svg" width="147" height="48" viewBox="0 0 147 48" fill="none">
<g style="mix-blend-mode:luminosity" clip-path="url(#clip0_186_2177)">
<path d="M51.5493 34.7749V20.2199H51.8419L63.7958 34.7749H67.5576V13.4006H63.3779V27.919H63.0853L51.1313 13.4006H47.3696V34.7749H51.5493ZM79.3861 35.1049C84.9033 35.1049 88.2889 31.9519 88.2889 26.6725C88.2889 21.4297 84.9033 18.2401 79.3861 18.2401C73.9107 18.2401 70.4834 21.4297 70.4834 26.6725C70.5252 31.9519 73.8689 35.1049 79.3861 35.1049ZM79.3861 32.0252C76.4603 32.0252 74.7884 30.0821 74.7884 26.6725C74.7884 23.2995 76.4603 21.3198 79.3861 21.3198C82.3119 21.3198 83.9838 23.2995 83.9838 26.6725C83.9838 30.0821 82.3119 32.0252 79.3861 32.0252ZM92.0924 14.6105V18.68H89.1666V21.6131H92.0924V30.4487C92.0924 33.6017 93.7643 34.8483 98.0276 34.8483C98.8217 34.8483 99.6159 34.7749 100.243 34.6649V31.8053C99.7413 31.8419 99.4069 31.8786 98.8217 31.8786C97.0663 31.8786 96.2721 31.182 96.2721 29.5688V21.6131H100.243V18.68H96.2721V14.6105H92.0924ZM102.751 34.7749H106.93V18.5701H102.751V34.7749ZM104.841 15.8937C106.22 15.8937 107.348 14.9038 107.348 13.6939C107.348 12.4474 106.22 11.4575 104.841 11.4575C103.461 11.4575 102.333 12.4474 102.333 13.6939C102.333 14.9038 103.461 15.8937 104.841 15.8937ZM118.383 35.1049C123.9 35.1049 127.285 31.9519 127.285 26.6725C127.285 21.4297 123.9 18.2401 118.383 18.2401C112.907 18.2401 109.48 21.4297 109.48 26.6725C109.48 31.9519 112.824 35.1049 118.383 35.1049ZM118.383 32.0252C115.457 32.0252 113.785 30.0821 113.785 26.6725C113.785 23.2995 115.457 21.3198 118.383 21.3198C121.267 21.3198 122.98 23.2995 122.98 26.6725C122.939 30.0821 121.267 32.0252 118.383 32.0252ZM129.752 34.7749H133.931V25.3526C133.931 22.9696 135.52 21.4664 137.986 21.4664C140.535 21.4664 141.705 22.7129 141.705 25.1693V34.7749H145.885V24.2894C145.885 20.4032 143.628 18.2401 139.532 18.2401C136.773 18.2401 134.934 19.34 134.057 21.1731H133.764V18.5701H129.71C129.752 18.5701 129.752 34.7749 129.752 34.7749Z" fill="black"/>
<path fill-rule="evenodd" clip-rule="evenodd" d="M7.29341 12.0326C8.50992 12.9024 8.94993 12.8337 11.2277 12.6964L32.6848 11.5519C33.1507 11.5519 32.7624 11.1399 32.6071 11.0941L29.0353 8.82806C28.3623 8.37028 27.4305 7.82093 25.6963 7.95826L4.93805 9.30874C4.18744 9.37741 4.03214 9.72075 4.34274 9.97254L7.29341 12.0326ZM8.58757 16.4502V36.4098C8.58757 37.4857 9.18289 37.8748 10.5547 37.8061L34.1342 36.593C35.506 36.5243 35.6613 35.7918 35.6613 34.922V15.0998C35.6613 14.23 35.2731 13.7493 34.4448 13.818L9.80408 15.0998C8.89817 15.1684 8.58757 15.5804 8.58757 16.4502ZM31.8565 17.5261C32.0118 18.1212 31.8565 18.7392 31.1836 18.8079L30.0447 19.0139V33.7547C29.0611 34.2125 28.1552 34.4871 27.3787 34.4871C26.1622 34.4871 25.8516 34.1438 24.9457 33.1367L17.5173 22.8135V32.7933L19.8726 33.2511C19.8726 33.2511 19.8726 34.4642 17.9832 34.4642L12.7548 34.7389C12.5995 34.4642 12.7548 33.8005 13.2724 33.6631L14.6442 33.3198V20.1355L12.7548 19.9981C12.5995 19.403 12.9877 18.5332 14.0489 18.4645L19.6656 18.1212L27.4046 28.5588V19.3343L25.4375 19.1283C25.2822 18.3959 25.9034 17.8465 26.654 17.7778L31.8565 17.5261ZM3.20388 7.47759L24.8163 6.08133C27.4564 5.87532 28.1552 6.01266 29.8117 7.08847L36.6967 11.3688C37.8355 12.1013 38.2238 12.3073 38.2238 13.1084V36.6159C38.2238 38.0808 37.6285 38.9506 35.506 39.0879L10.4253 40.4384C8.82052 40.5071 8.06991 40.3011 7.24165 39.3626L2.14267 33.5258C1.23676 32.45 0.848511 31.6488 0.848511 30.7104V9.81231C0.848511 8.59917 1.46971 7.61492 3.20388 7.47759Z" fill="black"/>
</g>
<defs>
<clipPath id="clip0_186_2177">
<rect width="145.551" height="48" fill="white" transform="translate(0.848511)"/>
</clipPath>
</defs>
</svg>