<svg width="18" height="20" viewBox="0 0 18 20" fill="none" xmlns="http://www.w3.org/2000/svg">
<g id="Group 1000005837">
<path id="Vector (Stroke)" fill-rule="evenodd" clip-rule="evenodd" d="M9.00018 2.32015C7.3253 2.32015 5.96755 3.6779 5.96755 5.35276C5.96755 7.02762 7.3253 8.38538 9.00018 8.38538C10.6751 8.38538 12.0328 7.02762 12.0328 5.35276C12.0328 3.6779 10.6751 2.32015 9.00018 2.32015ZM4.48114 5.35276C4.48114 2.85697 6.50438 0.83374 9.00018 0.83374C11.496 0.83374 13.5192 2.85697 13.5192 5.35276C13.5192 7.84855 11.496 9.87178 9.00018 9.87178C6.50438 9.87178 4.48114 7.84855 4.48114 5.35276Z" fill="#6D758F"/>
<path id="Vector (Stroke)_2" fill-rule="evenodd" clip-rule="evenodd" d="M3.33108 12.9311C4.68924 12.1203 6.52679 11.5803 9.00016 11.5803C11.4735 11.5803 13.3111 12.1203 14.6692 12.9311C16.028 13.7421 16.8635 14.7982 17.3726 15.762L17.3726 15.762C17.8281 16.6246 17.6791 17.5196 17.162 18.1689C16.6647 18.7934 15.8553 19.1661 14.9863 19.1661H3.01402C2.14506 19.1661 1.33558 18.7934 0.838269 18.1689C0.321232 17.5196 0.172207 16.6246 0.627781 15.762C1.1368 14.7982 1.97233 13.7421 3.33108 12.9311ZM4.09293 14.2074C3.00346 14.8577 2.34447 15.6944 1.94214 16.4562L1.94214 16.4562C1.77817 16.7667 1.83033 17.0286 2.00104 17.2429C2.19147 17.4821 2.5563 17.6797 3.01402 17.6797H14.9863C15.444 17.6797 15.8088 17.4821 15.9993 17.2429C16.17 17.0286 16.2222 16.7666 16.0582 16.4562C15.6559 15.6944 14.9969 14.8577 13.9074 14.2074C12.8173 13.5567 11.253 13.0667 9.00016 13.0667C6.74737 13.0667 5.18299 13.5567 4.09293 14.2074Z" fill="#6D758F"/>
</g>
</svg>
