<svg width="48" height="48" viewBox="0 0 48 48" fill="none" xmlns="http://www.w3.org/2000/svg">
<g id="coin-hand">
<path id="Icon" d="M15.7725 39.9736C15.2481 40.1469 14.9635 40.7125 15.1368 41.2369C15.3101 41.7613 15.8757 42.0459 16.4001 41.8726L15.7725 39.9736ZM27.7244 41.6923L27.6344 40.6964L27.6344 40.6964L27.7244 41.6923ZM34.7072 40.1538L35.1427 41.054L35.1427 41.054L34.7072 40.1538ZM41.3794 34.1361L40.605 33.5035L40.605 33.5035L41.3794 34.1361ZM36.816 30.3708L37.5201 31.0809L37.5201 31.0809L36.816 30.3708ZM33.7431 33.4174L34.4471 34.1276L34.4471 34.1276L33.7431 33.4174ZM25.3968 33.7692C24.8445 33.7692 24.3968 34.2169 24.3968 34.7692C24.3968 35.3215 24.8445 35.7692 25.3968 35.7692V33.7692ZM40.67 29.9924L40.1186 30.8267L40.1186 30.8267L40.67 29.9924ZM18.448 28.9831L18.8922 29.879L18.8922 29.879L18.448 28.9831ZM26.8001 28.2256L27.0612 27.2603L27.0612 27.2603L26.8001 28.2256ZM30.0618 29.1075L29.8008 30.0729L29.8008 30.0729L30.0618 29.1075ZM31.0952 32.9657L30.3911 32.2556L30.3911 32.2556L31.0952 32.9657ZM28.5721 34.0591C28.1799 34.4479 28.1771 35.0811 28.566 35.4733C28.9548 35.8655 29.588 35.8682 29.9802 35.4794L28.5721 34.0591ZM16.4001 41.8726C16.7886 41.7442 17.4018 41.7041 18.2707 41.7655C19.1192 41.8255 20.0966 41.9716 21.1696 42.1387C23.2572 42.4638 25.7245 42.877 27.8143 42.6883L27.6344 40.6964C25.8449 40.858 23.657 40.502 21.4773 40.1625C20.4166 39.9974 19.3574 39.8374 18.4117 39.7705C17.4864 39.7051 16.5478 39.7174 15.7725 39.9736L16.4001 41.8726ZM27.8143 42.6883C30.8546 42.4137 32.173 42.4908 35.1427 41.054L34.2717 39.2537C31.6875 40.504 30.7486 40.4151 27.6344 40.6964L27.8143 42.6883ZM35.1427 41.054C37.7812 39.7775 40.4775 36.821 42.1539 34.7688L40.605 33.5035C38.9189 35.5676 36.4678 38.1911 34.2717 39.2537L35.1427 41.054ZM36.1119 29.6607L33.039 32.7073L34.4471 34.1276L37.5201 31.0809L36.1119 29.6607ZM30.4513 33.7692H25.3968V35.7692H30.4513V33.7692ZM33.039 32.7073C32.3542 33.3863 31.4235 33.7692 30.4513 33.7692V35.7692C31.9484 35.7692 33.3859 35.1797 34.4471 34.1276L33.039 32.7073ZM41.2214 29.1582C39.6158 28.097 37.4786 28.3057 36.1119 29.6607L37.5201 31.0809C38.2124 30.3945 39.3013 30.2865 40.1186 30.8267L41.2214 29.1582ZM42.1539 34.7688C43.6303 32.9614 43.0887 30.3924 41.2214 29.1582L40.1186 30.8267C41.082 31.4635 41.2698 32.6896 40.605 33.5035L42.1539 34.7688ZM7.55174 28.0769H13.7587V26.0769H7.55174V28.0769ZM14.3104 28.6154V42.4615H16.3104V28.6154H14.3104ZM13.7587 43H7.55174V45H13.7587V43ZM7 42.4615V28.6154H5V42.4615H7ZM7.55174 43C7.2389 43 7 42.7508 7 42.4615H5C5 43.8716 6.15058 45 7.55174 45V43ZM14.3104 42.4615C14.3104 42.7508 14.0715 43 13.7587 43V45C15.1599 45 16.3104 43.8716 16.3104 42.4615H14.3104ZM13.7587 28.0769C14.0715 28.0769 14.3104 28.3261 14.3104 28.6154H16.3104C16.3104 27.2053 15.1599 26.0769 13.7587 26.0769V28.0769ZM7.55174 26.0769C6.15057 26.0769 5 27.2053 5 28.6154H7C7 28.3261 7.2389 28.0769 7.55174 28.0769V26.0769ZM16.5305 31.0498L18.8922 29.879L18.0039 28.0871L15.6422 29.2579L16.5305 31.0498ZM23.3058 28.8462H23.9421V26.8462H23.3058V28.8462ZM26.5391 29.191L29.8008 30.0729L30.3228 28.1422L27.0612 27.2603L26.5391 29.191ZM30.3911 32.2556L28.5721 34.0591L29.9802 35.4794L31.7993 33.6758L30.3911 32.2556ZM29.8008 30.0729C30.7893 30.3402 31.1015 31.5513 30.3911 32.2556L31.7993 33.6758C33.6164 31.8743 32.7827 28.8074 30.3228 28.1422L29.8008 30.0729ZM23.9421 28.8462C24.8195 28.8462 25.6928 28.9621 26.5391 29.191L27.0612 27.2603C26.0446 26.9854 24.9957 26.8462 23.9421 26.8462V28.8462ZM18.8922 29.879C20.2622 29.1999 21.7733 28.8462 23.3058 28.8462V26.8462C21.4656 26.8462 19.6505 27.2709 18.0039 28.0871L18.8922 29.879ZM34.4831 16.3077C34.4831 19.146 32.16 21.4615 29.2761 21.4615V23.4615C33.2483 23.4615 36.4831 20.2667 36.4831 16.3077H34.4831ZM29.2761 21.4615C26.3923 21.4615 24.0691 19.146 24.0691 16.3077H22.0691C22.0691 20.2667 25.3039 23.4615 29.2761 23.4615V21.4615ZM24.0691 16.3077C24.0691 13.4694 26.3923 11.1538 29.2761 11.1538V9.15385C25.3039 9.15385 22.0691 12.3486 22.0691 16.3077H24.0691ZM29.2761 11.1538C32.16 11.1538 34.4831 13.4694 34.4831 16.3077H36.4831C36.4831 12.3486 33.2483 9.15385 29.2761 9.15385V11.1538ZM23.0691 15.3077C20.1853 15.3077 17.8622 12.9922 17.8622 10.1538H15.8622C15.8622 14.1129 19.097 17.3077 23.0691 17.3077V15.3077ZM17.8622 10.1538C17.8622 7.31554 20.1853 5 23.0691 5V3C19.097 3 15.8622 6.1948 15.8622 10.1538H17.8622ZM23.0691 5C25.953 5 28.2761 7.31554 28.2761 10.1538H30.2761C30.2761 6.1948 27.0413 3 23.0691 3V5Z" fill="black"/>
</g>
</svg>
