<svg width="48" height="48" viewBox="0 0 48 48" fill="none" xmlns="http://www.w3.org/2000/svg">
<g id="image-focus">
<path id="Icon" d="M18 6H10C7.79086 6 6 7.79086 6 10V18M18 42H10C7.79086 42 6 40.2091 6 38V30M30 6H38C40.2091 6 42 7.79086 42 10V18M42 30V38C42 40.2091 40.2091 42 38 42H30M19.5 30.75H28.5C29.7426 30.75 30.75 29.7426 30.75 28.5V19.5C30.75 18.2574 29.7426 17.25 28.5 17.25H19.5C18.2574 17.25 17.25 18.2574 17.25 19.5V28.5C17.25 29.7426 18.2574 30.75 19.5 30.75Z" stroke="black" stroke-width="2" stroke-linecap="round"/>
</g>
</svg>
