<svg width="48" height="48" viewBox="0 0 48 48" fill="none" xmlns="http://www.w3.org/2000/svg">
<g id="globe-03">
<path id="Icon" d="M8.25 18.5C7.69772 18.5 7.25 18.9477 7.25 19.5C7.25 20.0523 7.69772 20.5 8.25 20.5V18.5ZM39.75 20.5C40.3023 20.5 40.75 20.0523 40.75 19.5C40.75 18.9477 40.3023 18.5 39.75 18.5V20.5ZM8.43896 28.6248C7.88667 28.6248 7.43896 29.0725 7.43896 29.6248C7.43896 30.1771 7.88667 30.6248 8.43896 30.6248V28.6248ZM39.939 30.6248C40.4913 30.6248 40.939 30.1771 40.939 29.6248C40.939 29.0725 40.4913 28.6248 39.939 28.6248V30.6248ZM41 24C41 33.3888 33.3888 41 24 41V43C34.4934 43 43 34.4934 43 24H41ZM24 41C14.6112 41 7 33.3888 7 24H5C5 34.4934 13.5066 43 24 43V41ZM7 24C7 14.6112 14.6112 7 24 7V5C13.5066 5 5 13.5066 5 24H7ZM24 7C33.3888 7 41 14.6112 41 24H43C43 13.5066 34.4934 5 24 5V7ZM24 41C23.2436 41 22.4441 40.6538 21.6298 39.8665C20.8106 39.0746 20.0273 37.8804 19.3477 36.3271C17.9899 33.2235 17.125 28.866 17.125 24H15.125C15.125 29.0751 16.023 33.7176 17.5154 37.1287C18.2609 38.8328 19.1745 40.2746 20.2396 41.3044C21.3096 42.3388 22.5818 43 24 43V41ZM17.125 24C17.125 19.134 17.9899 14.7765 19.3477 11.6729C20.0273 10.1196 20.8106 8.9254 21.6298 8.13348C22.4441 7.3462 23.2436 7 24 7V5C22.5818 5 21.3096 5.66115 20.2396 6.69558C19.1745 7.72535 18.2609 9.16718 17.5154 10.8713C16.023 14.2824 15.125 18.9249 15.125 24H17.125ZM24 43C25.4182 43 26.6904 42.3388 27.7604 41.3044C28.8255 40.2746 29.7391 38.8328 30.4846 37.1287C31.977 33.7176 32.875 29.0751 32.875 24H30.875C30.875 28.866 30.0101 33.2235 28.6523 36.3271C27.9727 37.8804 27.1894 39.0746 26.3702 39.8665C25.5559 40.6538 24.7564 41 24 41V43ZM32.875 24C32.875 18.9249 31.977 14.2824 30.4846 10.8713C29.7391 9.16718 28.8255 7.72535 27.7604 6.69558C26.6904 5.66115 25.4182 5 24 5V7C24.7564 7 25.5559 7.3462 26.3702 8.13348C27.1894 8.9254 27.9727 10.1196 28.6523 11.6729C30.0101 14.7765 30.875 19.134 30.875 24H32.875ZM8.25 20.5H39.75V18.5H8.25V20.5ZM8.43896 30.6248H39.939V28.6248H8.43896V30.6248Z" fill="black"/>
</g>
</svg>
