<svg width="48" height="48" viewBox="0 0 48 48" fill="none" xmlns="http://www.w3.org/2000/svg">
<g id="bar-group-01">
<path id="Icon" d="M18.1129 42V21.048C18.1129 20.4957 18.5607 20.048 19.1129 20.048H29.2294C29.7817 20.048 30.2294 20.4957 30.2294 21.048V42M18.1129 42L18.1162 32.3603C18.1163 31.8079 17.6686 31.36 17.1162 31.36H7C6.44772 31.36 6 31.8077 6 32.36V41C6 41.5523 6.44772 42 7 42H18.1129ZM18.1129 42H30.2294M30.2294 42V7C30.2294 6.44772 30.6772 6 31.2294 6H41C41.5523 6 42 6.44772 42 7V41C42 41.5523 41.5523 42 41 42H30.2294Z" stroke="black" stroke-width="2" stroke-linecap="round" stroke-linejoin="round"/>
</g>
</svg>
