<svg width="32" height="33" viewBox="0 0 32 33" fill="none" xmlns="http://www.w3.org/2000/svg">
<g id="phone-call-01">
<path id="Icon" d="M17.1614 8.93453C18.7613 9.20265 20.2146 9.95828 21.3748 11.1161C22.535 12.2739 23.286 13.7242 23.5608 15.3208M17.4057 3.69995C20.2512 4.18136 22.8464 5.52809 24.9103 7.58169C26.9742 9.64139 28.3176 12.2313 28.8 15.071M26.5773 26.3688C26.5773 26.3688 25.0324 27.8862 24.6538 28.331C24.0371 28.9892 23.3104 29.2999 22.3579 29.2999C22.2663 29.2999 22.1686 29.2999 22.077 29.2939C20.2634 29.1781 18.5781 28.4712 17.3141 27.8679C13.8579 26.1982 10.8231 23.8277 8.30124 20.8235C6.219 18.3189 4.82677 16.0033 3.90473 13.517C3.33685 11.9997 3.12923 10.8175 3.22083 9.70233C3.28189 8.98935 3.55667 8.39826 4.06349 7.89247L6.14573 5.81449C6.44493 5.53418 6.76246 5.38183 7.07388 5.38183C7.45857 5.38183 7.76999 5.6134 7.96539 5.8084C7.9715 5.81449 7.97761 5.82059 7.98371 5.82668C8.35619 6.17403 8.71036 6.53356 9.08284 6.91747C9.27213 7.11247 9.46753 7.30747 9.66293 7.50856L11.3299 9.17217C11.9772 9.81811 11.9772 10.4153 11.3299 11.0612C11.1529 11.238 10.9819 11.4147 10.8048 11.5853C10.2919 12.1094 10.6948 11.7073 10.1636 12.1826C10.1514 12.1948 10.1391 12.2009 10.133 12.213C9.6079 12.7371 9.7056 13.249 9.81551 13.5963C9.82162 13.6146 9.82772 13.6329 9.83383 13.6512C10.2674 14.6993 10.878 15.6865 11.8062 16.8626L11.8123 16.8687C13.4976 18.9406 15.2745 20.5554 17.2346 21.7925C17.485 21.9509 17.7414 22.0789 17.9857 22.2008C18.2055 22.3104 18.4131 22.414 18.5902 22.5237C18.6146 22.5359 18.6391 22.5542 18.6635 22.5664C18.8711 22.67 19.0665 22.7187 19.268 22.7187C19.7748 22.7187 20.0923 22.4019 20.1962 22.2983L21.3931 21.1038C21.6007 20.8966 21.9304 20.6468 22.3151 20.6468C22.6937 20.6468 23.0051 20.8844 23.1944 21.0916C23.2005 21.0977 23.2005 21.0977 23.2066 21.1038L26.5712 24.4615C27.2001 25.083 26.5773 26.3688 26.5773 26.3688Z" stroke="black" stroke-width="2" stroke-linecap="round" stroke-linejoin="round"/>
</g>
</svg>
