<svg xmlns="http://www.w3.org/2000/svg" width="24" height="25" viewBox="0 0 24 25" fill="none">
  <rect y="0.5" width="24" height="24" rx="4" fill="#262626"/>
  <path fill-rule="evenodd" clip-rule="evenodd" d="M6 12.5C6 10.1032 6 8.90486 6.57113 8.0417C6.82616 7.65626 7.15626 7.32616 7.5417 7.07113C8.40486 6.5 9.60324 6.5 12 6.5C14.3968 6.5 15.5951 6.5 16.4583 7.07113C16.8437 7.32616 17.1738 7.65626 17.4289 8.0417C18 8.90486 18 10.1032 18 12.5C18 14.8968 18 16.0951 17.4289 16.9583C17.1738 17.3437 16.8437 17.6738 16.4583 17.9289C15.5951 18.5 14.3968 18.5 12 18.5C9.60324 18.5 8.40486 18.5 7.5417 17.9289C7.15626 17.6738 6.82616 17.3437 6.57113 16.9583C6 16.0951 6 14.8968 6 12.5ZM15.1062 12.5002C15.1062 14.2157 13.7154 15.6064 11.9999 15.6064C10.2843 15.6064 8.89362 14.2157 8.89362 12.5002C8.89362 10.7846 10.2843 9.39388 11.9999 9.39388C13.7154 9.39388 15.1062 10.7846 15.1062 12.5002ZM11.9999 14.5555C13.135 14.5555 14.0552 13.6353 14.0552 12.5002C14.0552 11.365 13.135 10.4448 11.9999 10.4448C10.8648 10.4448 9.94456 11.365 9.94456 12.5002C9.94456 13.6353 10.8648 14.5555 11.9999 14.5555ZM15.2288 9.9677C15.632 9.9677 15.9587 9.64092 15.9587 9.23782C15.9587 8.83471 15.632 8.50793 15.2288 8.50793C14.8257 8.50793 14.499 8.83471 14.499 9.23782C14.499 9.64092 14.8257 9.9677 15.2288 9.9677Z" fill="white"/>
</svg>