<svg xmlns="http://www.w3.org/2000/svg" width="24" height="25" viewBox="0 0 24 25" fill="none">
  <rect y="0.5" width="24" height="24" rx="4" fill="#262626"/>
  <path d="M6 8.11321C6 7.7284 6.13514 7.41094 6.40541 7.16082C6.67567 6.9107 7.02703 6.78564 7.45946 6.78564C7.88417 6.78564 8.2278 6.90877 8.49035 7.15505C8.76061 7.40902 8.89575 7.73994 8.89575 8.14784C8.89575 8.51725 8.76448 8.82508 8.50193 9.07136C8.23166 9.32533 7.87645 9.45231 7.43629 9.45231H7.42471C7 9.45231 6.65637 9.32533 6.39382 9.07136C6.13127 8.81739 6 8.498 6 8.11321ZM6.15058 18.2142V10.5028H8.72201V18.2142H6.15058ZM10.1467 18.2142H12.7181V13.9083C12.7181 13.6389 12.749 13.4311 12.8108 13.2849C12.9189 13.0233 13.083 12.802 13.3031 12.6211C13.5232 12.4403 13.7992 12.3499 14.1313 12.3499C14.9961 12.3499 15.4286 12.9309 15.4286 14.093V18.2142H18V13.7929C18 12.6538 17.7297 11.79 17.1892 11.2012C16.6486 10.6125 15.9344 10.3181 15.0463 10.3181C14.0502 10.3181 13.2741 10.7452 12.7181 11.5995V11.6226H12.7066L12.7181 11.5995V10.5028H10.1467C10.1622 10.7491 10.1699 11.5148 10.1699 12.8001C10.1699 14.0853 10.1622 15.89 10.1467 18.2142Z" fill="white"/>
</svg>