<svg xmlns="http://www.w3.org/2000/svg" width="24" height="25" viewBox="0 0 24 25" fill="none">
  <rect y="0.5" width="24" height="24" rx="4" fill="#262626"/>
  <path d="M14.018 7.634V7.63184H14.5807L14.7863 7.6729C14.9234 7.69955 15.0478 7.73449 15.1596 7.77771C15.2714 7.82093 15.3796 7.87136 15.4842 7.92899C15.5888 7.98662 15.6837 8.04533 15.7688 8.10512C15.8532 8.1642 15.929 8.22687 15.996 8.29314C16.0624 8.36013 16.1659 8.37742 16.3066 8.34501C16.4473 8.31259 16.5987 8.26756 16.761 8.20994C16.9234 8.15231 17.0839 8.08748 17.2426 8.01543C17.4013 7.94339 17.4979 7.89765 17.5326 7.8782C17.5665 7.85804 17.5845 7.84723 17.5867 7.84579L17.5888 7.84255L17.5996 7.83714L17.6105 7.83174L17.6213 7.82634L17.6321 7.82093L17.6343 7.81769L17.6375 7.81553L17.6408 7.81337L17.6429 7.81013L17.6537 7.80689L17.6646 7.80473L17.6624 7.82093L17.6592 7.83714L17.6537 7.85335L17.6483 7.86956L17.6429 7.88036L17.6375 7.89117L17.6321 7.90738C17.6285 7.91818 17.6249 7.93259 17.6213 7.9506C17.6177 7.96861 17.5834 8.04064 17.5185 8.16671C17.4536 8.29278 17.3724 8.42065 17.275 8.55031C17.1776 8.67998 17.0904 8.77794 17.0132 8.84422C16.9353 8.91122 16.8837 8.95804 16.8584 8.9847C16.8332 9.01207 16.8025 9.03728 16.7665 9.06034L16.7124 9.096L16.7015 9.1014L16.6907 9.1068L16.6886 9.11004L16.6853 9.1122L16.6821 9.11436L16.6799 9.11761L16.6691 9.12301L16.6583 9.12841L16.6561 9.13165L16.6528 9.13382L16.6496 9.13598L16.6474 9.13922L16.6453 9.14246L16.642 9.14462L16.6388 9.14678L16.6366 9.15002H16.6907L16.9937 9.08519C17.1957 9.04197 17.3886 8.98974 17.5726 8.92851L17.8647 8.83126L17.8972 8.82045L17.9134 8.81505L17.9243 8.80965L17.9351 8.80424L17.9459 8.79884L17.9567 8.79344L17.9784 8.7902L18 8.78804V8.80965L17.9946 8.81181L17.9892 8.81505L17.987 8.81829L17.9838 8.82045L17.9805 8.82261L17.9784 8.82586L17.9762 8.8291L17.9729 8.83126L17.9697 8.83342L17.9675 8.83666L17.9654 8.8399L17.9621 8.84206L17.9567 8.85287L17.9513 8.86367L17.9481 8.86584C17.9466 8.868 17.9008 8.92922 17.8106 9.04953C17.7205 9.17055 17.6718 9.23178 17.6646 9.23323C17.6574 9.23539 17.6472 9.24619 17.6343 9.26564C17.622 9.28581 17.5455 9.36614 17.4049 9.50661C17.2642 9.64708 17.1264 9.77206 16.9915 9.88156C16.8559 9.99178 16.7874 10.1272 16.7859 10.2879C16.7838 10.4478 16.7755 10.6286 16.761 10.8303C16.7466 11.032 16.7196 11.2499 16.6799 11.484C16.6402 11.7182 16.5789 11.9829 16.4959 12.2782C16.413 12.5736 16.312 12.8617 16.193 13.1427C16.0739 13.4236 15.9495 13.6758 15.8197 13.8991C15.6898 14.1224 15.5708 14.3115 15.4626 14.4664C15.3544 14.6213 15.2444 14.7671 15.1326 14.904C15.0207 15.0409 14.8794 15.195 14.7084 15.3665C14.5367 15.5372 14.4429 15.6309 14.4271 15.6474C14.4105 15.6633 14.3398 15.7224 14.215 15.8246C14.0909 15.9277 13.9574 16.0307 13.8146 16.1337C13.6725 16.236 13.5419 16.3213 13.4229 16.3898C13.3039 16.4582 13.1603 16.5364 12.9922 16.6243C12.8249 16.7129 12.6438 16.795 12.4491 16.8706C12.2543 16.9463 12.0487 17.0165 11.8323 17.0813C11.6159 17.1462 11.4067 17.1966 11.2047 17.2326C11.0027 17.2686 10.7737 17.2993 10.5176 17.3245L10.1335 17.3623V17.3677H9.43012V17.3623L9.33814 17.3569C9.27683 17.3533 9.22633 17.3497 9.18665 17.3461C9.14699 17.3425 8.99729 17.3227 8.7376 17.2866C8.47791 17.2506 8.27412 17.2146 8.12624 17.1786C7.97837 17.1426 7.75834 17.0741 7.46619 16.9733C7.17403 16.8724 6.92408 16.7705 6.71632 16.6675C6.50929 16.5652 6.37944 16.5004 6.32678 16.473C6.27484 16.4463 6.21641 16.4132 6.15149 16.3736L6.0541 16.3141L6.05195 16.3109L6.04869 16.3087L6.04545 16.3066L6.04328 16.3033L6.03246 16.2979L6.02164 16.2925L6.01949 16.2893L6.01623 16.2871L6.01298 16.285L6.01082 16.2817L6.00867 16.2785L6.00541 16.2763H6V16.2547L6.01082 16.2569L6.02164 16.2601L6.07033 16.2655C6.1028 16.2691 6.19117 16.2745 6.33544 16.2817C6.47972 16.2889 6.633 16.2889 6.79531 16.2817C6.95762 16.2745 7.12354 16.2583 7.29306 16.2331C7.46258 16.2079 7.66276 16.1647 7.8936 16.1034C8.12444 16.0422 8.33653 15.9694 8.52986 15.8852C8.72246 15.8002 8.85952 15.7368 8.94104 15.695C9.02183 15.6539 9.14518 15.5776 9.31109 15.4659L9.55996 15.2984L9.56213 15.2952L9.56537 15.293L9.56863 15.2908L9.57078 15.2876L9.57295 15.2844L9.57619 15.2822L9.57945 15.28L9.58161 15.2768L9.59243 15.2736L9.60325 15.2714L9.60541 15.2606L9.60866 15.2498L9.61191 15.2476L9.61407 15.2444L9.5275 15.239C9.4698 15.2354 9.41389 15.2318 9.35978 15.2282C9.30568 15.2246 9.22092 15.2084 9.1055 15.1796C8.99009 15.1507 8.86565 15.1075 8.73219 15.0499C8.59874 14.9923 8.46889 14.9238 8.34265 14.8446C8.21642 14.7653 8.12516 14.6994 8.06889 14.6468C8.01335 14.595 7.94121 14.5215 7.85248 14.4264C7.76448 14.3306 7.68801 14.2323 7.62308 14.1314C7.55816 14.0306 7.49613 13.9142 7.43698 13.7824L7.34716 13.5857L7.34175 13.5695L7.33634 13.5533L7.33309 13.5425L7.33093 13.5317L7.34716 13.5339L7.36339 13.5371L7.48242 13.5533C7.56177 13.5641 7.68621 13.5677 7.85573 13.5641C8.02525 13.5605 8.14247 13.5533 8.20739 13.5425C8.27232 13.5317 8.312 13.5245 8.32642 13.5209L8.34806 13.5155L8.37511 13.5101L8.40216 13.5047L8.40433 13.5014L8.40757 13.4993L8.41083 13.4971L8.41298 13.4939L8.39134 13.4885L8.3697 13.4831L8.34806 13.4777L8.32642 13.4723L8.30478 13.4669C8.29036 13.4633 8.26511 13.4561 8.22904 13.4453C8.19297 13.4344 8.09559 13.3948 7.93688 13.3264C7.77819 13.258 7.65194 13.1913 7.55816 13.1265C7.46415 13.0615 7.3745 12.9904 7.28981 12.9136C7.20541 12.8358 7.11272 12.7357 7.01172 12.6132C6.91073 12.4908 6.82057 12.3485 6.74121 12.1864C6.66186 12.0243 6.60235 11.8694 6.56267 11.7218C6.52315 11.5749 6.49708 11.4249 6.48477 11.2733L6.46528 11.0464L6.4761 11.0486L6.48693 11.0518L6.49775 11.0572L6.50857 11.0626L6.51939 11.068L6.53021 11.0734L6.69793 11.1491C6.80975 11.1995 6.94861 11.2427 7.11452 11.2787C7.28044 11.3147 7.37962 11.3346 7.41208 11.3382L7.46078 11.3436H7.55816L7.55601 11.3403L7.55275 11.3382L7.5495 11.336L7.54734 11.3328L7.54519 11.3295L7.54193 11.3274L7.53868 11.3252L7.53652 11.3219L7.5257 11.3165L7.51488 11.3111L7.51272 11.3079L7.50947 11.3057L7.50622 11.3036L7.50406 11.3003L7.49324 11.2949L7.48242 11.2895L7.48026 11.2863C7.4781 11.2848 7.44708 11.2618 7.3872 11.2171C7.32804 11.1718 7.26601 11.113 7.20108 11.041C7.13616 10.969 7.07124 10.8933 7.00631 10.8141C6.94127 10.7347 6.88334 10.6497 6.83318 10.5602C6.78269 10.4701 6.72931 10.3556 6.67304 10.2165C6.6175 10.0782 6.5753 9.93883 6.54644 9.79836C6.51759 9.65789 6.50136 9.51922 6.49775 9.38234C6.49414 9.24547 6.49775 9.12841 6.50857 9.03116C6.51939 8.93391 6.54103 8.82405 6.57349 8.70159C6.60595 8.57913 6.65285 8.44946 6.71416 8.31259L6.80613 8.10728L6.81154 8.09107L6.81695 8.07487L6.82021 8.0727L6.82236 8.06946L6.82453 8.06622L6.82777 8.06406L6.83103 8.06622L6.83318 8.06946L6.83535 8.0727L6.83859 8.07487L6.84185 8.07703L6.844 8.08027L6.84617 8.08351L6.84941 8.08567L6.85482 8.09648L6.86023 8.10728L6.86349 8.10944L6.86564 8.11269L7.01172 8.27477C7.10911 8.38283 7.22453 8.50349 7.35798 8.63676C7.49144 8.77002 7.56538 8.83918 7.5798 8.84422C7.59424 8.84998 7.61226 8.86655 7.6339 8.89393C7.65555 8.92059 7.72769 8.98434 7.85032 9.08519C7.97296 9.18604 8.13346 9.30311 8.33183 9.43637C8.53021 9.56964 8.75023 9.70111 8.99188 9.83078C9.23355 9.96044 9.49324 10.0775 9.77096 10.182C10.0487 10.2864 10.2435 10.3548 10.3553 10.3873C10.4671 10.4197 10.6583 10.4611 10.9288 10.5115C11.1993 10.562 11.4031 10.5944 11.5401 10.6088C11.6772 10.6232 11.771 10.6315 11.8215 10.6336L11.8972 10.6358L11.8951 10.6196L11.8918 10.6034L11.8702 10.4683C11.8557 10.3783 11.8485 10.2522 11.8485 10.0901C11.8485 9.92803 11.8611 9.77855 11.8864 9.64168C11.9116 9.5048 11.9495 9.36614 12 9.22566C12.0505 9.08519 12.0999 8.97244 12.1482 8.88745C12.1973 8.80316 12.2615 8.70699 12.3408 8.59894C12.4202 8.49088 12.523 8.37923 12.6492 8.26396C12.7755 8.1487 12.9197 8.04605 13.0821 7.956C13.2444 7.86596 13.3941 7.79752 13.5311 7.7507C13.6682 7.70388 13.7836 7.67325 13.8774 7.65885C13.9711 7.64445 14.018 7.63616 14.018 7.634Z" fill="white"/>
</svg>