<svg xmlns="http://www.w3.org/2000/svg" width="24" height="25" viewBox="0 0 24 25" fill="none">
  <rect y="0.5" width="24" height="24" rx="4" fill="#262626"/>
  <path d="M12.2924 17.1533L9.5843 17.1027C8.70747 17.085 7.82846 17.1202 6.96882 16.9375C5.66111 16.6645 5.56847 15.3259 5.47152 14.2031C5.33795 12.6245 5.38966 11.0173 5.64173 9.45192C5.78404 8.57358 6.34406 8.04947 7.21011 7.99243C10.1337 7.78545 13.0767 7.80998 15.9938 7.90654C16.3019 7.9154 16.6121 7.96378 16.9158 8.01885C18.4154 8.28747 18.4519 9.8044 18.5492 11.0814C18.6461 12.3715 18.6052 13.6683 18.4199 14.9497C18.2712 16.0106 17.9868 16.9003 16.7866 16.9862C15.2827 17.0985 13.8134 17.1889 12.3053 17.1601C12.3054 17.1533 12.2967 17.1533 12.2924 17.1533ZM10.7003 14.4673C11.8336 13.8024 12.9452 13.1485 14.072 12.488C12.9366 11.8231 11.8271 11.1692 10.7003 10.5087V14.4673Z" fill="white"/>
</svg>