<svg width="96" height="34" viewBox="0 0 96 34" fill="none" xmlns="http://www.w3.org/2000/svg">
<path d="M23.0225 0H33.5999L33.5714 33.657L29.7955 24.3232L23.0225 0Z" fill="#B80000"/>
<path d="M17.5625 0H0L3.97164 8.51008L17.2934 33.657H33.5714L29.824 24.3151L17.5625 0Z" fill="#B80000"/>
<path d="M0.016311 0L0 33.6815L11.6703 33.6692L4.02057 8.52231L0.016311 0Z" fill="#B80000"/>
<path d="M41.96 18.0907L45.092 9.36673H46.772L49.904 18.0907H48.128L45.968 11.5987L45.872 11.1547L45.764 11.6227L44.744 14.7307L44.6 14.9707L44.78 14.9467H45.692C45.924 14.9467 46.118 15.0127 46.274 15.1447C46.434 15.2767 46.562 15.4387 46.658 15.6307C46.758 15.8227 46.836 16.0067 46.892 16.1827H44.288L43.652 18.0907H41.96ZM51.2561 18.0907V9.36673H52.9241V18.0907H51.2561ZM54.4681 15.0307V13.8547H58.0921V15.0307H54.4681ZM62.9401 18.2227C62.7201 18.2227 62.5201 18.2087 62.3401 18.1807C62.1601 18.1567 61.8961 18.1027 61.5481 18.0187C61.6121 17.8787 61.6961 17.7307 61.8001 17.5747C61.9041 17.4187 62.0341 17.2867 62.1901 17.1787C62.3461 17.0667 62.5321 17.0107 62.7481 17.0107C62.7561 17.0107 62.7641 17.0107 62.7721 17.0107C62.7841 17.0107 62.7921 17.0107 62.7961 17.0107C63.0721 17.0027 63.3161 16.9447 63.5281 16.8367C63.7441 16.7247 63.9141 16.5667 64.0381 16.3627C64.1621 16.1587 64.2241 15.9107 64.2241 15.6187C64.2241 15.3027 64.1341 15.0307 63.9541 14.8027C63.7781 14.5707 63.5341 14.3927 63.2221 14.2687C62.9101 14.1447 62.5561 14.0827 62.1601 14.0827H61.0801V18.0907H59.4001V9.49873C59.8281 9.42673 60.1941 9.37073 60.4981 9.33073C60.8021 9.28673 61.0821 9.25673 61.3381 9.24073C61.5981 9.22073 61.8721 9.21073 62.1601 9.21073C62.8801 9.21073 63.4861 9.31473 63.9781 9.52273C64.4701 9.72673 64.8421 10.0127 65.0941 10.3807C65.3461 10.7487 65.4721 11.1787 65.4721 11.6707C65.4721 11.9627 65.3801 12.2547 65.1961 12.5467C65.0121 12.8387 64.7721 13.0787 64.4761 13.2667L64.1281 13.4347L64.4641 13.5187C64.7561 13.6227 65.0161 13.7867 65.2441 14.0107C65.4761 14.2347 65.6581 14.4887 65.7901 14.7727C65.9221 15.0567 65.9881 15.3427 65.9881 15.6307C65.9881 15.9387 65.9181 16.2467 65.7781 16.5547C65.6381 16.8587 65.4361 17.1367 65.1721 17.3887C64.9081 17.6407 64.5881 17.8427 64.2121 17.9947C63.8361 18.1467 63.4121 18.2227 62.9401 18.2227ZM61.0801 12.9547H62.1601C62.4361 12.9547 62.6941 12.9007 62.9341 12.7927C63.1741 12.6847 63.3681 12.5367 63.5161 12.3487C63.6681 12.1567 63.7441 11.9347 63.7441 11.6827C63.7441 11.4947 63.6901 11.3047 63.5821 11.1127C63.4781 10.9167 63.3101 10.7527 63.0781 10.6207C62.8461 10.4887 62.5401 10.4227 62.1601 10.4227C61.9441 10.4227 61.7641 10.4287 61.6201 10.4407C61.4761 10.4527 61.2961 10.4747 61.0801 10.5067V12.9547ZM67.5452 18.0907V9.36673H69.2132V18.0907H67.5452ZM71.2012 18.0907V9.36673H72.9292V16.8427H76.0732V18.0907H71.2012ZM77.5882 18.0907V9.36673H79.2562V18.0907H77.5882ZM82.6001 18.0907V10.6027H80.3201V9.36673H86.5841V10.6027H84.3041V18.0907H82.6001ZM89.9823 18.0907V14.2267L86.9703 9.36673H88.8423L91.6383 14.0227V18.0907H89.9823ZM91.9983 13.5667C91.8943 13.4307 91.7823 13.2427 91.6623 13.0027C91.5423 12.7587 91.4623 12.4967 91.4223 12.2167C91.3823 11.9327 91.4303 11.6627 91.5663 11.4067L92.6943 9.36673H94.5423L91.9983 13.5667Z" fill="black"/>
<path d="M42.3105 25.5907V20.5017H43.056L45.4395 24.3062L45.527 24.5512L45.513 24.2957V20.5017H46.1815V25.5907H45.5095L43.042 21.6602L42.9405 21.4187L42.9545 21.6567V25.5907H42.3105ZM47.5103 25.5907V20.5017H50.4503V21.0652H48.2663V25.0272H50.5553V25.5907H47.5103ZM48.5323 23.1967C48.565 23.1057 48.607 23.0182 48.6583 22.9342C48.712 22.8479 48.7797 22.7791 48.8613 22.7277C48.943 22.6741 49.0433 22.6472 49.1623 22.6472H50.2123V23.1967H48.5323ZM52.4599 25.5907V21.0652H51.0179V20.5017H54.6684V21.0652H53.2194V25.5907H52.4599ZM56.296 25.5907L54.91 20.5017H55.666L56.6775 24.5232L56.7335 24.8802L56.8105 24.5232L57.8465 20.5717H58.6655L59.6805 24.5267L59.7505 24.8837L59.81 24.5407L60.818 20.5017H61.553L60.1705 25.5907H59.3305L58.3015 21.6882L58.242 21.3942L58.186 21.6742L57.164 25.5907H56.296ZM64.4308 25.6887C63.9665 25.6887 63.5523 25.5802 63.1883 25.3632C62.8266 25.1462 62.542 24.8394 62.3343 24.4427C62.1266 24.0461 62.0228 23.5794 62.0228 23.0427C62.0228 22.6181 62.0893 22.2424 62.2223 21.9157C62.3553 21.5867 62.535 21.3102 62.7613 21.0862C62.99 20.8599 63.2478 20.6884 63.5348 20.5717C63.8241 20.4551 64.1228 20.3967 64.4308 20.3967C64.8321 20.3967 65.1821 20.4691 65.4808 20.6137C65.7818 20.7561 66.0326 20.9521 66.2333 21.2017C66.434 21.4491 66.5845 21.7314 66.6848 22.0487C66.7851 22.3637 66.8353 22.6951 66.8353 23.0427C66.8353 23.4301 66.7746 23.7859 66.6533 24.1102C66.532 24.4322 66.3616 24.7111 66.1423 24.9467C65.9253 25.1824 65.671 25.3656 65.3793 25.4962C65.0876 25.6246 64.7715 25.6887 64.4308 25.6887ZM64.4308 25.1252C64.7388 25.1252 65.013 25.0354 65.2533 24.8557C65.496 24.6761 65.685 24.4299 65.8203 24.1172C65.958 23.8022 66.0268 23.4441 66.0268 23.0427C66.0268 22.6227 65.9568 22.2576 65.8168 21.9472C65.6768 21.6346 65.4855 21.3931 65.2428 21.2227C65.0025 21.0501 64.7318 20.9637 64.4308 20.9637C64.1228 20.9637 63.8475 21.0512 63.6048 21.2262C63.3645 21.3989 63.1755 21.6416 63.0378 21.9542C62.9001 22.2669 62.8313 22.6297 62.8313 23.0427C62.8313 23.3391 62.8698 23.6144 62.9468 23.8687C63.0238 24.1207 63.1323 24.3412 63.2723 24.5302C63.4146 24.7169 63.5838 24.8627 63.7798 24.9677C63.9758 25.0727 64.1928 25.1252 64.4308 25.1252ZM67.8541 25.5907V20.5647C68.0501 20.5274 68.2274 20.4971 68.3861 20.4737C68.5471 20.4504 68.7022 20.4329 68.8516 20.4212C69.0032 20.4096 69.1631 20.4037 69.3311 20.4037C69.7044 20.4037 70.0322 20.4702 70.3146 20.6032C70.5992 20.7362 70.8209 20.9182 70.9796 21.1492C71.1406 21.3779 71.2211 21.6357 71.2211 21.9227C71.2211 22.2051 71.1464 22.4512 70.9971 22.6612C70.8501 22.8712 70.6599 23.0392 70.4266 23.1652L70.2516 23.2247L70.3951 23.2877C70.5607 23.4044 70.6879 23.5467 70.7766 23.7147C70.8652 23.8804 70.9376 24.0647 70.9936 24.2677C71.0519 24.4684 71.1114 24.6807 71.1721 24.9047C71.2327 25.1287 71.3167 25.3574 71.4241 25.5907H70.6331C70.5444 25.3947 70.4721 25.1871 70.4161 24.9677C70.3601 24.7484 70.3029 24.5349 70.2446 24.3272C70.1886 24.1196 70.1127 23.9352 70.0171 23.7742C69.9214 23.6109 69.7896 23.4896 69.6216 23.4102C69.4979 23.4219 69.3754 23.4242 69.2541 23.4172C69.1351 23.4102 69.0126 23.3904 68.8866 23.3577C68.9216 23.2761 68.9671 23.1991 69.0231 23.1267C69.0814 23.0544 69.1502 22.9949 69.2296 22.9482C69.3089 22.9016 69.3987 22.8759 69.4991 22.8712C69.6507 22.8642 69.7966 22.8199 69.9366 22.7382C70.0789 22.6542 70.1956 22.5422 70.2866 22.4022C70.3799 22.2599 70.4266 22.0989 70.4266 21.9192C70.4266 21.7419 70.3776 21.5821 70.2796 21.4397C70.1816 21.2951 70.0497 21.1807 69.8841 21.0967C69.7184 21.0127 69.5341 20.9707 69.3311 20.9707C69.2051 20.9707 69.0931 20.9742 68.9951 20.9812C68.8971 20.9859 68.7687 21.0022 68.6101 21.0302V25.5907H67.8541ZM75.538 25.5907L74.236 23.2107L74.187 23.0707L74.117 23.2072L73.5955 23.8897C73.5512 23.7661 73.5313 23.6249 73.536 23.4662C73.543 23.3076 73.5722 23.1477 73.6235 22.9867C73.6772 22.8257 73.753 22.6787 73.851 22.5457L75.3525 20.5017H76.1995L74.621 22.5527L76.434 25.5907H75.538ZM72.4615 25.5907V20.5017H73.2175V25.5907H72.4615ZM78.4523 25.6782C78.254 25.6782 78.0206 25.6526 77.7523 25.6012C77.4863 25.5522 77.2238 25.4659 76.9648 25.3422L77.1678 24.8347C77.3895 24.9351 77.6076 25.0074 77.8223 25.0517C78.0393 25.0937 78.2306 25.1147 78.3963 25.1147C78.7043 25.1147 78.947 25.0366 79.1243 24.8802C79.3016 24.7216 79.3903 24.5302 79.3903 24.3062C79.3903 24.1126 79.3331 23.9504 79.2188 23.8197C79.1045 23.6867 78.9575 23.5689 78.7778 23.4662C78.6005 23.3612 78.4115 23.2586 78.2108 23.1582C78.0101 23.0556 77.82 22.9412 77.6403 22.8152C77.4606 22.6869 77.3136 22.5341 77.1993 22.3567C77.0873 22.1771 77.0313 21.9566 77.0313 21.6952C77.0313 21.4409 77.0931 21.2181 77.2168 21.0267C77.3428 20.8331 77.5143 20.6826 77.7313 20.5752C77.9506 20.4656 78.2003 20.4107 78.4803 20.4107C78.6856 20.4107 78.8898 20.4271 79.0928 20.4597C79.2958 20.4901 79.5233 20.5461 79.7753 20.6277L79.5688 21.1317C79.3681 21.0711 79.1815 21.0302 79.0088 21.0092C78.8385 20.9859 78.6845 20.9742 78.5468 20.9742C78.2995 20.9742 78.1081 21.0431 77.9728 21.1807C77.8375 21.3184 77.7698 21.4817 77.7698 21.6707C77.7698 21.8481 77.827 22.0009 77.9413 22.1292C78.0556 22.2552 78.2026 22.3707 78.3823 22.4757C78.562 22.5784 78.7533 22.6834 78.9563 22.7907C79.1593 22.8957 79.3506 23.0159 79.5303 23.1512C79.71 23.2842 79.857 23.4441 79.9713 23.6307C80.088 23.8174 80.1463 24.0437 80.1463 24.3097C80.1463 24.5594 80.0786 24.7881 79.9433 24.9957C79.8103 25.2011 79.6166 25.3667 79.3623 25.4927C79.1103 25.6164 78.807 25.6782 78.4523 25.6782Z" fill="black"/>
</svg>
